<?xml version="1.0" encoding="UTF-8" standalone="no"?>
<!-- Created with Inkscape (http://www.inkscape.org/) -->

<svg
   width="16px"
   height="16px"
   viewBox="0 0 16 16"
   version="1.1"
   id="svg23"
   sodipodi:docname="shutdown-timer-symbolic.svg"
   inkscape:version="1.2.1 (9c6d41e410, 2022-07-14)"
   xmlns:inkscape="http://www.inkscape.org/namespaces/inkscape"
   xmlns:sodipodi="http://sodipodi.sourceforge.net/DTD/sodipodi-0.dtd"
   xmlns="http://www.w3.org/2000/svg"
   xmlns:svg="http://www.w3.org/2000/svg">
  <sodipodi:namedview
     id="namedview25"
     pagecolor="#ffffff"
     bordercolor="#666666"
     borderopacity="1.0"
     inkscape:showpageshadow="2"
     inkscape:pageopacity="0.0"
     inkscape:pagecheckerboard="0"
     inkscape:deskcolor="#d1d1d1"
     showgrid="true"
     inkscape:zoom="90.509668"
     inkscape:cx="7.5074853"
     inkscape:cy="14.164233"
     inkscape:window-width="1920"
     inkscape:window-height="1043"
     inkscape:window-x="0"
     inkscape:window-y="0"
     inkscape:window-maximized="1"
     inkscape:current-layer="svg23">
    <inkscape:grid
       type="xygrid"
       id="grid1746" />
  </sodipodi:namedview>
  <defs
     id="defs2">
    <mask
       maskUnits="userSpaceOnUse"
       id="mask-powermask-path-effect3197">
      <path
         id="mask-powermask-path-effect3197_box"
         style="fill:#ffffff;fill-opacity:1"
         d="M -0.99999952,0.60407305 H 51 V 52.604076 H -0.99999952 Z" />
      <g
         id="g3195"
         transform="translate(0,0.19136598)"
         style="">
        <g
           id="g3191"
           transform="matrix(1.2287,0,0,1.2287,-75.653604,-34.820966)"
           style="display:inline;fill:#000004;fill-opacity:1;stroke:none;stroke-width:0.349149;stroke-linejoin:miter;stroke-miterlimit:4;stroke-dasharray:none;stroke-opacity:1">
          <rect
             style="fill:#000004;fill-opacity:1;stroke:none;stroke-width:0.349149;stroke-linejoin:miter;stroke-miterlimit:4;stroke-dasharray:none;stroke-opacity:1;paint-order:stroke fill markers"
             id="rect3179"
             width="33.716988"
             height="1.7247528"
             x="65.128845"
             y="48.919441"
             d="m 65.128845,48.919441 h 33.716988 v 1.724753 H 65.128845 Z" />
          <rect
             style="fill:#000004;fill-opacity:1;stroke:none;stroke-width:0.349149;stroke-linejoin:miter;stroke-miterlimit:4;stroke-dasharray:none;stroke-opacity:1;paint-order:stroke fill markers"
             id="rect3181"
             width="33.716988"
             height="1.7247528"
             x="29.253716"
             y="83.243614"
             transform="rotate(-30)"
             d="m 29.253716,83.243614 h 33.716987 v 1.724753 H 29.253716 Z" />
          <rect
             style="fill:#000004;fill-opacity:1;stroke:none;stroke-width:0.349149;stroke-linejoin:miter;stroke-miterlimit:4;stroke-dasharray:none;stroke-opacity:1;paint-order:stroke fill markers"
             id="rect3183"
             width="33.716988"
             height="1.7247528"
             x="-18.977144"
             y="95.031654"
             transform="rotate(-60)"
             d="m -18.977144,95.031654 h 33.716987 v 1.724753 h -33.716987 z" />
          <rect
             style="fill:#000004;fill-opacity:1;stroke:none;stroke-width:0.349149;stroke-linejoin:miter;stroke-miterlimit:4;stroke-dasharray:none;stroke-opacity:1;paint-order:stroke fill markers"
             id="rect3185"
             width="33.716988"
             height="1.7247528"
             x="-66.640312"
             y="81.124962"
             transform="rotate(-90)"
             d="m -66.640312,81.124962 h 33.716987 v 1.724753 h -33.716987 z" />
          <rect
             style="fill:#000004;fill-opacity:1;stroke:none;stroke-width:0.349149;stroke-linejoin:miter;stroke-miterlimit:4;stroke-dasharray:none;stroke-opacity:1;paint-order:stroke fill markers"
             id="rect3187"
             width="33.716988"
             height="1.7247528"
             x="-100.96449"
             y="45.249832"
             transform="rotate(-120)"
             d="m -100.96449,45.249832 h 33.716985 v 1.724753 h -33.716985 z" />
          <rect
             style="fill:#000004;fill-opacity:1;stroke:none;stroke-width:0.349149;stroke-linejoin:miter;stroke-miterlimit:4;stroke-dasharray:none;stroke-opacity:1;paint-order:stroke fill markers"
             id="rect3189"
             width="33.716988"
             height="1.7247528"
             x="-112.75253"
             y="-2.9810319"
             transform="rotate(-150)"
             d="m -112.75253,-2.9810319 h 33.716985 v 1.7247528 h -33.716985 z" />
        </g>
        <rect
           style="fill:#020000;fill-opacity:1;stroke:none;stroke-width:14.1529;paint-order:stroke fill markers"
           id="rect3193"
           width="25"
           height="34.423"
           x="12.5"
           y="-5.1351433"
           d="m 12.5,-5.1351433 h 25 V 29.287857 h -25 z" />
      </g>
    </mask>
    <mask
       maskUnits="userSpaceOnUse"
       id="mask-powermask-path-effect8059">
      <path
         id="mask-powermask-path-effect8059_box"
         style="fill:#ffffff;fill-opacity:1"
         d="M 19.0103,-1.8029513 H 30.989739 V 29.800875 H 19.0103 Z" />
      <g
         id="g8051"
         style="fill:#070000;fill-opacity:1"
         transform="matrix(1.1301744,0,0,0.95805263,-4.3845132,-1.7607603)">
        <rect
           style="display:inline;mix-blend-mode:normal;fill:#070000;fill-opacity:1;stroke:none;stroke-width:0;stroke-miterlimit:4;stroke-dasharray:none;stroke-opacity:1;paint-order:stroke fill markers"
           id="rect8045"
           width="9.6789093"
           height="1.2342269"
           x="20.281725"
           y="13.955683"
           transform="translate(0.99999951,2.2353173)"
           d="m 20.281725,13.955683 h 9.678909 v 1.234227 h -9.678909 z" />
        <rect
           style="display:inline;mix-blend-mode:normal;fill:#070000;fill-opacity:1;stroke:none;stroke-width:0;stroke-miterlimit:4;stroke-dasharray:none;stroke-opacity:1;paint-order:stroke fill markers"
           id="rect8047"
           width="9.6789093"
           height="1.2342269"
           x="20.281725"
           y="25.918182"
           transform="translate(0.99999951,2.2353173)"
           d="m 20.281725,25.918182 h 9.678909 v 1.234227 h -9.678909 z" />
        <rect
           style="display:inline;mix-blend-mode:normal;fill:#070000;fill-opacity:1;stroke:none;stroke-width:0;stroke-miterlimit:4;stroke-dasharray:none;stroke-opacity:1;paint-order:stroke fill markers"
           id="rect8049"
           width="9.6789093"
           height="1.2342269"
           x="20.281725"
           y="21.930683"
           transform="translate(0.99999951,2.2353173)"
           d="m 20.281725,21.930683 h 9.678909 v 1.234227 h -9.678909 z" />
      </g>
    </mask>
  </defs>
  <path
     id="path1016"
     style="display:inline;fill:#000000;fill-opacity:1;stroke:#000000;stroke-width:0.1;stroke-linecap:butt;stroke-linejoin:round;stroke-dasharray:none;stroke-opacity:1"
     d="M 6.6757812,0.10370312 V 4.6564375 H 9.3242188 V 0.10370312 Z M 4.2460938,1.8947188 c 0,0 -3.7336862,1.8715687 -3.75000005,6.4765625 -0.0163138,4.6049937 3.75000005,6.5253907 3.75000005,6.5253907 0,0 1.7791591,1.021306 3.78125,1.015625 2.0020912,-0.0057 3.7441402,-1.015625 3.7441402,-1.015625 0,0 3.724059,-2.124435 3.736328,-6.5253907 0.01227,-4.4009557 -3.732421,-6.4648438 -3.732421,-6.4648438 v 3.4003906 c 0,0 0.02378,0.0065 0.144531,0.1660157 0.120768,0.1595124 0.126953,0.1992187 0.126953,0.1992187 L 13.222656,4.9943281 13.544922,5.5412031 12.375,6.2189375 c 0,0 0.180927,0.4073893 0.324219,0.9003906 0.143291,0.4930013 0.173828,0.9414063 0.173828,0.9414063 l 1.337891,-0.00391 0.0059,0.6328126 -1.330078,-0.00781 c 0,0 -0.0089,0.3677374 -0.152344,0.9375 -0.143417,0.569763 -0.337891,0.919922 -0.337891,0.919922 l 1.142578,0.679688 -0.3125,0.541015 -1.152343,-0.671875 c 0,0 -0.178508,0.29967 -0.576172,0.708985 -0.397581,0.409316 -0.773438,0.640625 -0.773438,0.640625 l 0.66211,1.154297 -0.554688,0.324218 -0.658203,-1.160156 c 0,0 -0.3427972,0.186493 -0.9296874,0.34375 -0.5868902,0.157282 -0.9140625,0.148438 -0.9140625,0.148438 l -0.011719,1.335937 c -0.2043011,0.0017 -0.4070271,0 -0.6113282,0 l -0.011719,-1.335937 c 0,-10e-7 -0.3271723,0.0088 -0.9140625,-0.148438 C 6.1943598,12.94254 5.8515625,12.756047 5.8515625,12.756047 L 5.1933594,13.916203 4.6386719,13.591985 5.3007812,12.437688 c 0,0 -0.3757763,-0.231309 -0.7734374,-0.640625 -0.3976649,-0.409315 -0.578125,-0.708985 -0.578125,-0.708985 l -1.1503907,0.671875 -0.3125,-0.541015 1.1425781,-0.679688 c 1e-7,0 -0.1944733,-0.350159 -0.3378906,-0.9199219 -0.1434221,-0.5697626 -0.1523437,-0.9375 -0.1523437,-0.9375 l -1.3300781,0.00781 0.00586,-0.6328126 1.3378907,0.00391 c 0,0 0.030536,-0.448405 0.1738281,-0.9414063 0.143291,-0.4930024 0.324218,-0.9003917 0.324218,-0.9003917 L 2.4804688,5.5412031 2.8027344,4.9943281 3.9785156,5.6720625 c 0,0 0.00621,-0.039706 0.1269532,-0.1992187 C 4.2262215,5.3133328 4.25,5.3068281 4.25,5.3068281 Z M 6.6757812,5.0138594 V 7.0568281 H 9.3242188 V 5.0158125 Z M 6.671875,7.4259688 V 8.2443281 H 9.3183594 V 7.4279219 Z m 0,1.1855469 V 9.3693281 H 9.3203125 V 8.6134688 Z"
     sodipodi:nodetypes="ccccccscccscccccccsccccccccccccccccccccccccccccccccccscccccccccccccccccccccc" />
</svg>
